<?xml version="1.0" encoding="UTF-8"?>
<svg version="1.1" viewBox="0 0 141 148" xmlns="http://www.w3.org/2000/svg">
<title>404cloud</title>
<desc>Created with Sketch.</desc>
<defs>
<linearGradient id="d" x1="-.0090559%" x2="99.973%" y1="49.999%" y2="49.999%">
<stop stop-color="#D0DAE2" offset="0"/>
<stop stop-color="#90A0B3" offset="1"/>
</linearGradient>
<linearGradient id="c" x1="47.569%" x2="39.213%" y1="-23.84%" y2="50.581%">
<stop stop-color="#D0DAE2" offset="0"/>
<stop stop-color="#B2BFCC" stop-opacity=".53" offset=".47"/>
<stop stop-color="#90A0B3" stop-opacity="0" offset="1"/>
</linearGradient>
<linearGradient id="b" x1="50%" x2="21.233%" y1="80.649%">
<stop stop-color="#D0DAE2" stop-opacity="0" offset="0"/>
<stop stop-color="#fff" offset="1"/>
</linearGradient>
<linearGradient id="a" x1="50.178%" x2="50.178%" y1="-32.209%" y2="100.27%">
<stop stop-color="#D0DAE2" stop-opacity=".3" offset="0"/>
<stop stop-color="#0071CE" offset="1"/>
</linearGradient>
</defs>
<g transform="translate(-281 -98)" fill="none" fill-rule="evenodd">
<g transform="translate(281 98)" fill-rule="nonzero">
<path d="m110.92 79.33c11.706 0.010728 22.332-6.8426 27.15-17.512 4.8181-10.669 2.9338-23.172-4.8148-31.947-7.7485-8.775-19.922-12.192-31.105-8.7318-4.1249-12.795-16.316-21.236-29.744-20.595-13.428 0.64111-24.759 10.205-27.646 23.335-10.816-6.307-24.424-5.1667-34.04 2.8524-9.6158 8.0191-13.182 21.201-8.9198 32.974 4.2617 11.773 15.439 19.618 27.959 19.624h81.16z" fill="url(#d)"/>
<path d="m133.04 29.68c2.4597 4.4184 3.7473 9.393 3.74 14.45 0 16.43-44 27.19-60.42 27.19l-50.48 2.56c-8.4383 0.01042-16.482-3.5715-22.12-9.85 5.2465 9.4418 15.198 15.298 26 15.3h81.15c11.749 0.0021599 22.399-6.9108 27.181-17.643 4.7814-10.732 2.7986-23.273-5.0605-32.007h0.01z" fill="#90A0B3"/>
<path d="m102.37 21.21c-1.8352-3.9408-4.0738-7.6807-6.68-11.16 1.6633 3.7482 2.9561 7.6501 3.86 11.65 0.95-0.2 1.88-0.33 2.82-0.49z" fill="#90A0B3"/>
<path d="m72.18 33.73c2-8.8 13.18-13.76 25-11.08s19.71 12 17.71 20.79l-42.71-9.71z" fill="url(#c)"/>
<path d="m53.4 33.06c-4.5-9.13-0.12-20.49 9.79-25.38s21.59-1.44 26.09 7.69l-35.88 17.69z" fill="url(#b)"/>
<path d="m88.06 125.91h0.09c0.78202-7.6e-5 1.4191 0.62805 1.43 1.41v15.9h-1.22c-0.083049-0.002818-0.16355 0.028937-0.2223 0.087695-0.058758 0.058759-0.090513 0.13926-0.087695 0.2223 0.0023183 0.12272 0.076821 0.23251 0.19 0.28l5.84 4c0.10352 0.078338 0.24648 0.078338 0.35 0l5.89-4.06c0.10637-0.077751 0.15197-0.21424 0.1137-0.34032-0.038273-0.12608-0.15206-0.21418-0.2837-0.21968h-1.22v-15.9c0-1.1046-0.89543-2-2-2h-8.77c-0.078483 0.004038-0.15295 0.035952-0.21 0.09-0.052867 0.056991-0.081548 0.13228-0.08 0.21-0.014859 0.13705 0.062563 0.26744 0.19 0.32z" fill="url(#a)"/>
<path d="m53.03 125.91h0.09c0.78202-7.6e-5 1.4191 0.62805 1.43 1.41v15.9h-1.22c-0.14259 0.005758-0.26283 0.10812-0.29127 0.24796-0.028443 0.13984 0.042259 0.28104 0.17127 0.34204l5.84 4c0.10352 0.078338 0.24648 0.078338 0.35 0l5.89-4.06c0.10637-0.077751 0.15197-0.21424 0.1137-0.34032s-0.15206-0.21418-0.2837-0.21968h-1.22v-15.9c0-1.1046-0.89543-2-2-2h-8.77c-0.078905 0.00217-0.15401 0.034358-0.21 0.09-0.055642 0.055989-0.08783 0.1311-0.09 0.21-0.001468 0.13655 0.076616 0.26148 0.2 0.32z" fill="url(#a)"/>
<path d="m70.16 116.57h0.09c0.78365 0.005367 1.4191 0.63641 1.43 1.42v15.89h-1.18c-0.083049-0.002818-0.16355 0.028937-0.2223 0.087695-0.058758 0.058759-0.090513 0.13926-0.087695 0.2223-3.681e-4 0.12355 0.075051 0.2347 0.19 0.28l5.84 4c0.10633 0.069455 0.24367 0.069455 0.35 0l5.93-3.97c0.10637-0.077751 0.15197-0.21424 0.1137-0.34032s-0.15206-0.21418-0.2837-0.21968h-1.22v-15.9c0-1.1046-0.89543-2-2-2h-8.77c-0.077742 0.007095-0.15125 0.038598-0.21 0.09-0.052867 0.056991-0.081548 0.13228-0.08 0.21 6.453e-4 0.089209 0.04096 0.1735 0.11 0.23z" fill="url(#a)"/>
<path d="m35.13 116.57h0.09c0.78365 0.005367 1.4191 0.63641 1.43 1.42v15.89h-1.15c-0.083918-0.006018-0.16631 0.024705-0.2258 0.084196-0.059491 0.059491-0.090214 0.14189-0.084196 0.2258-0.0066035 0.12538 0.071055 0.23982 0.19 0.28l5.84 4c0.10633 0.069455 0.24367 0.069455 0.35 0l5.89-4.07c0.10637-0.077751 0.15197-0.21424 0.1137-0.34032s-0.15206-0.21418-0.2837-0.21968h-1.22v-15.9c0-1.1046-0.89543-2-2-2h-8.76c-0.078286 0.004878-0.15248 0.036675-0.21 0.09-0.055642 0.055989-0.08783 0.1311-0.09 0.21-0.03216 0.12424 0.015551 0.25544 0.12 0.33z" fill="url(#a)"/>
<path d="m88.06 94h0.09c0.78588-1.92e-5 1.4245 0.63414 1.43 1.42v15.89h-1.22c-0.083049-0.002818-0.16355 0.028937-0.2223 0.087695-0.058758 0.058759-0.090513 0.13926-0.087695 0.2223-3.681e-4 0.12355 0.075051 0.2347 0.19 0.28l5.84 4c0.10633 0.069455 0.24367 0.069455 0.35 0l5.89-4.07c0.10637-0.077751 0.15197-0.21424 0.1137-0.34032-0.038273-0.12608-0.15206-0.21418-0.2837-0.21968h-1.22v-15.9c0-1.1046-0.89543-2-2-2h-8.77c-0.077261 0.0089454-0.15024 0.040221-0.21 0.09-0.052867 0.056991-0.081548 0.13228-0.08 0.21-0.01965 0.14052 0.058609 0.27644 0.19 0.33z" fill="url(#a)"/>
<path d="m53.03 94h0.09c0.78365 0.0053668 1.4191 0.63641 1.43 1.42v15.89h-1.22c-0.083918-0.006018-0.16631 0.024705-0.2258 0.084196-0.059491 0.059491-0.090214 0.14189-0.084196 0.2258-0.0066035 0.12538 0.071055 0.23982 0.19 0.28l5.84 4c0.10633 0.069455 0.24367 0.069455 0.35 0l5.89-4.07c0.10637-0.077751 0.15197-0.21424 0.1137-0.34032s-0.15206-0.21418-0.2837-0.21968h-1.22v-15.9c0-1.1046-0.89543-2-2-2h-8.77c-0.077742 0.0070953-0.15125 0.038598-0.21 0.09-0.055642 0.055989-0.08783 0.13109-0.09 0.21-0.0054679 0.14013 0.07324 0.27 0.2 0.33z" fill="url(#a)"/>
<path d="m70.16 84.66h0.09c0.78365 0.0053668 1.4191 0.63641 1.43 1.42v15.92h-1.18c-0.083049-0.002818-0.16355 0.028937-0.2223 0.087695-0.058758 0.058759-0.090513 0.13926-0.087695 0.2223-3.681e-4 0.12355 0.075051 0.2347 0.19 0.28l5.84 4c0.10633 0.069455 0.24367 0.069455 0.35 0l5.89-4.07c0.10637-0.077751 0.15197-0.21424 0.1137-0.34032s-0.15206-0.21418-0.2837-0.21968h-1.22v-15.86c0-1.1046-0.89543-2-2-2h-8.77c-0.077742 0.0070953-0.15125 0.038598-0.21 0.09-0.052867 0.056991-0.081548 0.13228-0.08 0.21-6.88e-5 0.10725 0.05712 0.20638 0.15 0.26z" fill="url(#a)"/>
<path d="m35.13 84.66h0.09c0.78365 0.0053668 1.4191 0.63641 1.43 1.42v15.92h-1.15c-0.083918-0.006018-0.16631 0.024705-0.2258 0.084196-0.059491 0.059491-0.090214 0.14189-0.084196 0.2258-0.0066035 0.12538 0.071055 0.23982 0.19 0.28l5.84 4c0.10633 0.069455 0.24367 0.069455 0.35 0l5.89-4.07c0.10637-0.077751 0.15197-0.21424 0.1137-0.34032s-0.15206-0.21418-0.2837-0.21968h-1.22v-15.86c0-1.1046-0.89543-2-2-2h-8.76c-0.078286 0.0048785-0.15248 0.036675-0.21 0.09-0.055642 0.055989-0.08783 0.13109-0.09 0.21-0.0048229 0.10106 0.03997 0.19811 0.12 0.26z" fill="url(#a)"/>
</g>
</g>
</svg>