<svg width="350" height="211" viewBox="0 0 350 211" fill="none" xmlns="http://www.w3.org/2000/svg">
<g clip-path="url(#clip0_129_4487)">
<rect x="69.5" y="20.1631" width="172" height="127" rx="4.5" stroke="#C2C9D6" stroke-linejoin="round" stroke-dasharray="8 12"/>
<path d="M122.101 210.27C122.101 210.27 122.559 207.35 119.759 206.522C117.043 205.717 113.711 205.539 111.212 205.208C109.49 204.979 107.579 204.881 105.838 202.841H97.9735L101.108 210.27H122.101Z" fill="#3448C5"/>
<path d="M46.3513 210.337C46.3513 210.337 46.7304 207.417 44.2746 206.589C41.8899 205.784 38.6287 205.606 36.2677 205.275C34.6411 205.046 33.4369 204.924 34.2266 202.908H27.3844L24.6878 210.337H46.3553H46.3513Z" fill="#3448C5"/>
<path d="M9.30582 90.8394C9.30582 90.8394 1.93461 105.239 9.30582 114.357C16.677 123.474 48.5228 151.355 48.5228 151.355L18.7814 203.827H48.5268L66.7712 170.73L88.7151 202.841H118.539L43.1297 100.856L9.30582 90.8394Z" fill="#C2C9D6"/>
<path d="M22.5913 100.47C32.288 111.828 41.9768 123.198 51.9064 134.355C54.4569 137.22 57.0232 140.072 59.629 142.885C59.8027 143.07 60.0791 142.794 59.9093 142.605C49.8178 131.7 40.1527 120.393 30.4916 109.106C27.949 106.135 25.4103 103.164 22.8716 100.19C22.7058 99.9963 22.4295 100.276 22.5913 100.47Z" fill="#333B4C"/>
<path d="M67.1541 170.754C69.7086 166.233 72.4407 161.771 74.628 157.056C75.5795 155.001 76.1046 153.052 76.0454 150.764C75.9743 147.943 75.2636 145.149 74.0476 142.609C73.9371 142.38 73.5975 142.581 73.7081 142.806C74.9517 145.41 75.6624 148.306 75.6585 151.198C75.6585 153.569 74.9359 155.525 73.9213 157.628C71.7893 162.055 69.2269 166.276 66.8146 170.549C66.6882 170.77 67.0317 170.971 67.1541 170.746V170.754Z" fill="#333B4C"/>
<path d="M38.0563 198.446C43.789 187.352 49.9165 176.459 56.2968 165.724C58.0024 162.856 59.7316 159.999 61.4925 157.163C61.6268 156.946 61.2872 156.748 61.153 156.965C54.5675 167.574 48.3531 178.42 42.4071 189.399C40.816 192.335 39.2526 195.282 37.7167 198.248C37.6022 198.473 37.9418 198.675 38.0563 198.446Z" fill="#333B4C"/>
<path d="M59.6289 142.885C61.3069 144.621 62.6532 146.7 63.052 149.114C63.51 151.904 62.5861 154.598 61.149 156.965C61.0187 157.182 61.3582 157.38 61.4885 157.163C62.9296 154.788 63.8613 152.093 63.4705 149.288C63.1112 146.696 61.6978 144.459 59.9053 142.605C59.7276 142.423 59.4513 142.699 59.625 142.885H59.6289Z" fill="#333B4C"/>
<path d="M22.3347 198.544H51.1128C51.3655 198.544 51.3655 198.15 51.1128 198.15H22.3347C22.082 198.15 22.082 198.544 22.3347 198.544Z" fill="#333B4C"/>
<path d="M85.7697 198.544H114.548C114.8 198.544 114.8 198.15 114.548 198.15H85.7697C85.517 198.15 85.517 198.544 85.7697 198.544Z" fill="#333B4C"/>
<path d="M6.93296 75.8278H1.93854C1.93854 75.8278 4.50484 61.3409 8.25559 53.8449C12.0063 46.3489 15.5597 44.5065 20.0329 43.7845C24.5062 43.0626 30.8232 43.5202 37.8668 45.0983C44.9063 46.6764 52.1472 50.6216 53.9871 54.0422C55.8309 57.4627 48.0648 99.1757 48.0648 99.1757L23.2586 94.974L20.0487 106.841L0 108.483L6.93296 75.8238V75.8278Z" fill="#3448C5"/>
<path d="M38.4432 45.2323L38.2023 49.0394L33.433 92.6146L24.3956 87.9671L30.1007 50.6175L29.5796 43.7173C32.1616 43.9816 34.953 44.4393 37.8628 45.0942C38.0562 45.1376 38.2497 45.181 38.4392 45.2283H38.4432V45.2323Z" fill="white"/>
<path d="M29.5796 43.7174C29.5796 43.7174 30.8548 46.049 34.1792 46.4435C37.5035 46.838 38.4432 45.2323 38.4432 45.2323L39.0473 43.7174L31.4194 38.6201L29.5796 43.7174Z" fill="#B6D2FF"/>
<path d="M72.6105 93.4905C72.6105 93.4905 73.2028 94.6425 71.738 95.546C70.2732 96.4494 59.1197 102.17 46.375 103.886C33.9897 105.555 17.5969 101.381 11.8089 96.2088C6.017 91.0366 3.25329 83.9785 3.73891 75.8237H20.4041C20.4041 75.8237 19.571 82.2269 25.4261 86.7402C32.138 91.9124 72.6066 93.4905 72.6066 93.4905H72.6105Z" fill="#B6D2FF"/>
<path d="M20.5422 76.3367H22.3031C22.5558 76.3367 22.5558 75.9421 22.3031 75.9421H20.5422C20.2896 75.9421 20.2896 76.3367 20.5422 76.3367Z" fill="#333B4C"/>
<path d="M108.491 90.5988C108.491 90.5988 111.326 88.6498 110.817 87.7503C110.197 86.6535 108.973 87.1822 107.789 88.058C106.604 88.9339 108.491 90.5988 108.491 90.5988Z" fill="#B6D2FF"/>
<path d="M106.224 51.6631H47.7753C46.2424 51.6631 44.9998 52.3589 44.9998 53.2172V92.1089C44.9998 92.9673 46.2424 93.6631 47.7753 93.6631H106.224C107.757 93.6631 109 92.9673 109 92.1089V53.2172C109 52.3589 107.757 51.6631 106.224 51.6631Z" fill="white"/>
<path d="M98.1827 58.6628H54.7965C53.0521 58.6628 51.6379 60.0759 51.6379 61.819V83.2969C51.6379 85.04 53.0521 86.4531 54.7965 86.4531H98.1827C99.9271 86.4531 101.341 85.04 101.341 83.2969V61.819C101.341 60.0759 99.9271 58.6628 98.1827 58.6628Z" fill="#C6D1DB"/>
<path d="M95.2611 70.9049C92.8409 71.8675 89.4652 72.9288 86.8081 71.615C85.3433 70.893 84.376 69.9501 82.2796 69.7884C80.0568 69.6187 77.8497 70.3131 76.0731 70.9719C71.4932 72.6605 67.1344 74.5779 62.9849 76.59C58.9894 78.531 55.2071 80.6062 51.6379 82.7958V83.2969C51.6379 85.0407 53.0514 86.453 54.7965 86.453H98.1827C99.9278 86.453 101.341 85.0407 101.341 83.2969V68.2537C99.379 69.1847 97.3536 70.0724 95.2611 70.9049Z" fill="#E06F00"/>
<path d="M59.2144 68.9243C60.7015 68.9243 61.907 67.7196 61.907 66.2336C61.907 64.7476 60.7015 63.543 59.2144 63.543C57.7273 63.543 56.5217 64.7476 56.5217 66.2336C56.5217 67.7196 57.7273 68.9243 59.2144 68.9243Z" fill="#E0560B"/>
<path d="M60.7661 94.895C60.7661 94.895 64.2326 92.1768 64.0983 90.7762C63.968 89.3717 62.4756 88.9772 60.2291 89.857C58.4051 90.5671 53.0869 93.7588 53.0869 93.7588L60.7621 94.899L60.7661 94.895Z" fill="#B6D2FF"/>
<path d="M89.6744 93.4906C89.6744 93.4906 91.1866 96.9309 97.7247 97.7436C104.993 98.6471 107.607 93.7274 108.033 93.033C108.46 92.3386 108.298 91.5654 107.157 91.4983C106.016 91.4312 105.27 92.2006 105.27 92.2006C105.27 92.2006 105.818 90.796 104.701 90.5791C103.584 90.3581 102.005 91.1945 100.532 92.5753C100.532 92.5753 101.629 90.9539 100.378 90.4489C99.1263 89.9439 96.9983 91.4825 96.2442 92.0506C95.5335 92.5832 94.3254 93.4985 94.3254 93.4985H89.6744V93.4906Z" fill="#B6D2FF"/>
<path d="M96.8956 95.9879C98.3959 95.1752 99.683 94.0903 100.69 92.7094C100.84 92.5043 100.496 92.307 100.35 92.5122C99.3869 93.8338 98.1353 94.8714 96.6982 95.6486C96.4732 95.7709 96.6745 96.1102 96.8956 95.9879Z" fill="#3448C5"/>
<path d="M101.341 96.6349C103.138 95.6171 104.397 94.106 105.491 92.382C105.629 92.165 105.285 91.9677 105.151 92.1847C104.093 93.8535 102.885 95.3054 101.144 96.2956C100.923 96.4219 101.12 96.7612 101.341 96.6349Z" fill="#3448C5"/>
<path d="M25.1932 63.412C24.2259 67.6531 23.0928 71.8508 22.1136 76.088C22.0584 76.3366 22.4374 76.4391 22.4927 76.1945C23.4718 71.9574 24.6049 67.7596 25.5722 63.5185C25.6275 63.2699 25.2485 63.1674 25.1932 63.412Z" fill="#333B4C"/>
<path d="M3.25329 71.5945H23.2586C23.5113 71.5945 23.5113 71.2 23.2586 71.2H3.25329C3.00061 71.2 3.00061 71.5945 3.25329 71.5945Z" fill="#333B4C"/>
<path d="M26.5237 43.5873C25.9868 46.5146 25.509 49.4499 24.9997 52.3812C24.9563 52.6298 25.3353 52.7363 25.3788 52.4877C25.892 49.5564 26.3697 46.6212 26.9027 43.6938C26.9501 43.4452 26.5672 43.3387 26.5237 43.5873Z" fill="#333B4C"/>
<path d="M25.2405 52.6257C26.8316 51.9984 28.4267 51.3672 30.0178 50.7399C30.2507 50.6491 30.1481 50.2664 29.9112 50.3611C28.3201 50.9884 26.725 51.6197 25.1339 52.247C24.901 52.3377 25.0036 52.7204 25.2405 52.6257Z" fill="#333B4C"/>
<path d="M38.2221 49.4341C39.2526 49.8878 40.3028 50.2902 41.3609 50.6808C41.5978 50.7676 41.7044 50.3888 41.4675 50.302C40.4449 49.9233 39.4263 49.5327 38.4235 49.0948C38.1945 48.9922 37.9931 49.3315 38.2261 49.4341H38.2221Z" fill="#333B4C"/>
<path d="M39.7658 45.8243C40.2514 47.3945 40.7331 48.9686 41.2227 50.5388C41.2977 50.7795 41.6806 50.6769 41.6017 50.4323C41.1161 48.8621 40.6344 47.2879 40.1448 45.7177C40.0698 45.4771 39.6868 45.5797 39.7658 45.8243Z" fill="#333B4C"/>
<path d="M33.1684 40.4704C33.9422 41.5592 35.8295 43.4885 38.0957 44.672C40.0658 45.7017 42.1583 45.0271 43.1533 43.3228C44.3496 41.2791 44.2351 37.9296 43.9863 34.5367C43.7376 31.1438 41.4714 27.5063 37.1481 27.3603C32.821 27.2144 31.0088 30.9702 30.689 33.3098C30.3692 35.6493 31.0798 37.5233 33.1723 40.4704H33.1684Z" fill="#B6D2FF"/>
<path d="M31.1075 39.4881L31.2615 37.985C31.2615 37.985 29.5795 35.2667 29.1768 33.7359C28.8255 32.4064 29.5717 30.3825 30.9772 30.7178C30.9772 30.7178 31.2536 27.4709 33.2829 25.9717C35.3083 24.4725 37.4798 25.3918 37.468 26.5832C37.468 26.5832 40.1211 25.0959 41.3648 27.4433C41.3648 27.4433 45.1037 28.402 44.6773 31.14C44.2509 33.878 40.4291 33.3532 40.4291 33.3532C40.4291 33.3532 39.8329 34.9392 37.9259 34.2291C36.015 33.519 35.0675 33.3493 34.5503 34.2685C34.037 35.1799 35.0201 36.2017 35.0201 36.2017C35.0201 36.2017 34.2226 40.6046 31.1075 39.4881Z" fill="#0A0C0F"/>
<path d="M35.6755 38.194C35.4188 39.271 34.337 39.9338 33.2592 39.6774C32.1814 39.4209 31.5181 38.3399 31.7747 37.2629C32.0313 36.1858 33.1131 35.523 34.191 35.7795C35.2688 36.0359 35.9321 37.1169 35.6755 38.194Z" fill="#B6D2FF"/>
<path d="M33.579 36.6947C32.7894 36.9117 32.438 37.7323 32.7697 38.4662C32.8763 38.6989 33.2158 38.4977 33.1092 38.2689C32.8802 37.7639 33.1566 37.2234 33.6817 37.0774C33.9265 37.0104 33.8238 36.6277 33.5751 36.6987L33.579 36.6947Z" fill="#0A0C0F"/>
<path d="M40.0106 35.1405C40.2791 35.8348 39.5052 35.8072 39.0512 36.4819C38.6327 37.1013 38.2181 37.3577 37.9615 37.0421C37.6535 36.6594 37.8154 35.7638 38.5971 35.105C39.3315 34.4856 39.8171 34.6355 40.0106 35.1405Z" fill="#0A0C0F"/>
<path d="M41.5859 34.9314C41.7596 35.6218 42.3321 35.1799 43.0467 35.46C43.7021 35.7165 44.0614 35.6376 44.0811 35.2509C44.1088 34.7815 43.5955 34.2212 42.6401 34.1305C41.7478 34.0437 41.4556 34.4264 41.5859 34.9314Z" fill="#0A0C0F"/>
<path d="M39.7223 36.687C39.1341 36.7462 39.292 37.5826 39.4262 37.914C39.517 38.127 39.6829 38.3756 39.9474 38.344C40.3343 38.3006 40.3106 37.772 40.2672 37.4918C40.2198 37.1802 40.1014 36.6515 39.7184 36.691L39.7223 36.687Z" fill="#0A0C0F"/>
<path d="M42.7861 35.9177C42.1979 35.9769 42.3558 36.8133 42.49 37.1447C42.5808 37.3577 42.7466 37.6063 43.0112 37.5747C43.3981 37.5313 43.3744 37.0027 43.331 36.7226C43.2836 36.4109 43.1652 35.8822 42.7822 35.9217L42.7861 35.9177Z" fill="#0A0C0F"/>
<path d="M41.199 36.6792C41.4714 37.5984 41.7952 38.3244 42.4624 39.0306C42.6361 39.216 42.9164 38.9359 42.7427 38.7504C42.1268 38.0955 41.8346 37.4288 41.5819 36.5766C41.5109 36.332 41.1279 36.4385 41.2029 36.6831L41.199 36.6792Z" fill="#0A0C0F"/>
<path d="M41.5543 39.6578C42.036 39.5986 42.5058 39.3934 42.7743 38.9713C42.9125 38.7582 42.569 38.557 42.4347 38.774C42.2492 39.066 41.8938 39.2238 41.5543 39.2632C41.3056 39.2948 41.3016 39.6893 41.5543 39.6578Z" fill="#0A0C0F"/>
<path d="M36.4454 43.7607C36.9981 44.2657 37.614 44.676 38.2931 44.9837C38.5221 45.0863 38.7235 44.747 38.4905 44.6444C37.8391 44.3485 37.2468 43.9619 36.7217 43.4806C36.5362 43.3109 36.2559 43.5871 36.4414 43.7607H36.4454Z" fill="#0A0C0F"/>
<path d="M42.9361 40.3442L40.4133 40.6875C40.4133 40.6875 41.0608 41.4765 41.882 41.4252C42.7743 41.3661 42.9322 40.3482 42.9322 40.3482L42.9361 40.3442Z" fill="white"/>
<path d="M350 205.843C350 205.843 347.11 207.035 345.543 204.727C344.019 202.482 342.992 199.515 342.009 197.345C341.334 195.85 341.081 195.349 338.539 194.319L336.793 188.129L344.646 186.855L349.996 205.843H350Z" fill="#0A0C0F"/>
<path d="M280.078 79.2009L271.215 80.2622L228.665 70.261V81.568L261.214 99.1717L262.675 118.302H287.007L293.502 92.2636L280.078 79.2009Z" fill="#535F7A"/>
<path d="M255.6 39.792C255.6 39.792 252.331 35.0696 250.751 34.1464C249.172 33.2232 248.252 34.6869 248.746 35.5588C248.746 35.5588 247.628 34.7855 246.851 35.7363C246.081 36.6753 247.234 38.1232 247.234 38.1232L252.169 45.5205L255.6 39.7881V39.792Z" fill="#B6D2FF"/>
<path d="M252.832 37.3816H191.067C189.541 37.3816 188.303 38.618 188.303 40.1433V86.6537C188.303 88.1789 189.541 89.4153 191.067 89.4153H252.832C254.358 89.4153 255.596 88.1789 255.596 86.6537V40.1433C255.596 38.618 254.358 37.3816 252.832 37.3816Z" fill="white"/>
<path d="M188.769 207.113C188.769 207.113 187.932 204.194 190.621 203.365C193.235 202.561 196.543 202.383 198.999 202.052C200.689 201.823 202.592 201.724 204.06 199.685H210.903L209.758 207.113H188.765H188.769Z" fill="#0A0C0F"/>
<path d="M210.907 199.685L212.521 192.354H205.742L204.06 199.685H210.907Z" fill="#B6D2FF"/>
<path d="M336.797 188.125L329.122 189.407L330.816 195.416L338.542 194.319L336.797 188.125Z" fill="#B6D2FF"/>
<path d="M287.623 148.988V171.784C287.623 176.167 290.257 177.745 294.73 177.745H331.404L339.916 206.151H279.028C274.29 206.151 259.461 203.519 259.374 184.231C259.287 164.943 259.99 150.128 259.99 150.128L230.249 144.692L218.14 197.996H188.134C188.134 197.996 202.963 141.623 204.716 134.608C206.469 127.593 211.033 116.724 226.652 118.038C242.271 119.352 262.272 122.946 262.272 122.946L262.679 118.298H287.015L287.291 123.119C287.291 123.119 296.163 133.377 287.627 148.984L287.623 148.988Z" fill="#3448C5"/>
<path d="M280.078 79.2009C280.078 79.2009 289.123 79.9111 292.211 80.708C297.932 82.1835 302.01 88.4959 291.09 101.843C282.139 112.779 281.744 114.203 278.72 115.189C275.692 116.176 271.744 115.454 266.481 112.889C261.218 110.325 241.698 99.7201 241.698 99.7201L247.332 89.4152C247.332 89.4152 266.35 97.3727 268.917 98.4892C271.483 99.6057 274.511 100 277.01 96.3193C279.51 92.6384 280.082 79.2009 280.082 79.2009H280.078Z" fill="#535F7A"/>
<path d="M247.064 89.715C251.971 91.9795 256.966 94.0666 261.988 96.0628C264.285 96.9781 266.595 97.8777 268.932 98.6825C270.081 99.077 271.467 99.728 272.711 99.5504C274.334 99.3177 275.589 98.0078 276.651 96.8677C278.112 95.3054 279.462 93.6484 280.88 92.0505C281.049 91.8612 280.769 91.5811 280.599 91.7704C279.419 93.1 278.29 94.4729 277.101 95.7946C276.019 96.99 274.839 98.4655 273.268 99.0099C271.886 99.4913 270.334 98.7456 269.035 98.2998C264.262 96.6586 259.583 94.7096 254.936 92.7449C252.362 91.656 249.8 90.5435 247.261 89.3757C247.032 89.2691 246.831 89.6084 247.064 89.715Z" fill="#333B4C"/>
<path d="M276.15 76.033C275.151 76.9088 272.893 78.3686 270.425 78.9603C267.957 79.5521 266.181 78.696 265.853 76.4946C265.525 74.2931 266.05 71.0383 267.069 67.815C268.088 64.5918 271.116 61.6013 275.329 62.4574C279.541 63.3135 280.43 67.3574 280.197 69.689C279.968 72.0246 278.846 73.6658 276.15 76.033Z" fill="#B6D2FF"/>
<path d="M264.361 71.2553C264.187 71.4447 264.246 71.78 264.42 71.9615C264.594 72.143 264.85 72.2101 265.091 72.2495C265.604 72.3403 266.41 72.3442 266.903 72.1588L267.922 67.3574C267.488 67.89 267.286 68.1425 266.576 68.9513C265.865 69.764 265.119 70.4387 264.361 71.2593V71.2553Z" fill="#B6D2FF"/>
<path d="M278.815 72.0562L279.577 76.3644L271.1 79.201L270.658 75.0821L278.815 72.0562Z" fill="#B6D2FF"/>
<path d="M279.577 76.3645L280.078 79.2011L271.215 80.2624L271.1 79.2011L279.577 76.3645Z" fill="#535F7A"/>
<path d="M275.329 62.4534C272.308 61.8418 269.896 63.2108 268.4 65.2229C269.304 66.7537 270.409 68.1661 271.913 69.1445C272.541 69.5508 273.216 69.8625 273.919 70.0677C274.101 71.7207 274.697 73.3067 275.909 74.4035C276.868 75.2714 278.238 75.6462 279.399 75.3425L278.988 73.0148C279.703 71.9614 280.078 70.9198 280.201 69.6889C280.43 67.3533 279.541 63.3095 275.329 62.4534Z" fill="#0A0C0F"/>
<path d="M283.193 70.8056C285.773 70.8056 287.864 68.716 287.864 66.1384C287.864 63.5608 285.773 61.4712 283.193 61.4712C280.614 61.4712 278.523 63.5608 278.523 66.1384C278.523 68.716 280.614 70.8056 283.193 70.8056Z" fill="#0A0C0F"/>
<path d="M278.791 64.7496C279.608 66.2566 280.094 67.9176 280.066 69.6377C280.066 69.8902 280.457 69.8902 280.461 69.6377C280.489 67.8505 279.979 66.1146 279.131 64.5484C279.008 64.3235 278.669 64.5247 278.791 64.7456V64.7496Z" fill="#C2C9D6"/>
<path d="M280.197 67.4955C281.27 65.223 283.284 63.4358 285.657 62.6034C285.894 62.5205 285.791 62.1378 285.55 62.2246C283.087 63.0886 280.974 64.9311 279.853 67.2982C279.746 67.527 280.086 67.7282 280.193 67.4955H280.197Z" fill="#C2C9D6"/>
<path d="M282.04 70.5216C283.193 68.0834 284.745 65.7597 287.603 65.2626C287.852 65.2192 287.746 64.8404 287.497 64.8838C284.544 65.3928 282.897 67.7915 281.697 70.3243C281.59 70.5531 281.93 70.7543 282.037 70.5216H282.04Z" fill="#C2C9D6"/>
<path d="M270.196 63.6923C271.365 66.1581 272.956 68.3634 274.922 70.2572C275.104 70.4347 275.384 70.1546 275.202 69.977C273.26 68.1031 271.696 65.9292 270.539 63.4911C270.429 63.2623 270.089 63.4635 270.2 63.6883L270.196 63.6923Z" fill="#C2C9D6"/>
<path d="M274.381 62.5443C274.582 65.6611 275.344 68.6792 276.643 71.5197C276.75 71.7486 277.089 71.5513 276.983 71.3225C275.712 68.545 274.969 65.594 274.772 62.5483C274.756 62.2958 274.361 62.2958 274.377 62.5483L274.381 62.5443Z" fill="#C2C9D6"/>
<path d="M278.365 64.58C278.329 67.3496 277.583 69.9929 276.17 72.3758C276.039 72.5928 276.383 72.794 276.509 72.5731C277.954 70.1349 278.72 67.4127 278.756 64.5761C278.756 64.3236 278.365 64.3236 278.361 64.5761L278.365 64.58Z" fill="#C2C9D6"/>
<path d="M275.19 73.8474C276.357 73.8474 277.303 72.9024 277.303 71.7367C277.303 70.571 276.357 69.626 275.19 69.626C274.024 69.626 273.078 70.571 273.078 71.7367C273.078 72.9024 274.024 73.8474 275.19 73.8474Z" fill="#B6D2FF"/>
<path d="M267.231 73.9893C267.843 73.8551 268.356 73.504 268.723 72.9951C268.873 72.7899 268.53 72.5927 268.384 72.7978C268.08 73.22 267.638 73.4961 267.128 73.6105C266.88 73.6658 266.986 74.0445 267.235 73.9893H267.231Z" fill="#0A0C0F"/>
<path d="M275.171 70.7543C275.609 71.066 275.794 71.6143 275.66 72.1312C275.597 72.3758 275.976 72.4823 276.039 72.2377C276.221 71.5394 275.948 70.8332 275.368 70.4189C275.163 70.269 274.965 70.6123 275.171 70.7582V70.7543Z" fill="#0A0C0F"/>
<path d="M271.23 79.0274C271.878 78.7354 272.415 78.2936 272.845 77.7333C272.999 77.5321 272.656 77.3349 272.506 77.5361C272.119 78.0411 271.613 78.4277 271.033 78.6881C270.8 78.7946 271.001 79.1339 271.23 79.0274Z" fill="#0A0C0F"/>
<path d="M271.179 80.645C274.053 82.1797 277.776 81.5958 280.193 79.4733C280.382 79.3036 280.102 79.0274 279.912 79.1931C277.634 81.1973 274.093 81.7536 271.376 80.3057C271.151 80.1873 270.954 80.5266 271.179 80.645Z" fill="#333B4C"/>
<path d="M262.193 110.921C264.858 112.515 267.614 114.006 270.587 114.945C273.161 115.754 276.403 116.523 278.992 115.422C281.654 114.294 283.703 111.793 285.487 109.611C287.449 107.208 289.246 104.675 291.094 102.19C291.244 101.985 290.904 101.787 290.754 101.993C288.993 104.364 287.28 106.774 285.424 109.07C283.726 111.169 281.811 113.552 279.371 114.811C276.635 116.223 273.161 115.379 270.378 114.464C267.555 113.532 264.933 112.104 262.394 110.581C262.177 110.451 261.976 110.791 262.197 110.921H262.193Z" fill="#333B4C"/>
<path d="M245.698 101.657C247.577 98.2487 249.452 94.844 251.332 91.4353C251.454 91.2144 251.114 91.0132 250.992 91.2381C249.113 94.6467 247.237 98.0515 245.358 101.46C245.236 101.681 245.575 101.882 245.698 101.657Z" fill="#333B4C"/>
<path d="M266.998 68.5094C266.97 69.1683 267.61 68.9237 268.182 69.3616C268.707 69.764 269.13 69.8587 269.252 69.5233C269.402 69.117 269.011 68.4147 268.171 68.0794C267.381 67.7677 267.018 68.0281 266.998 68.5094Z" fill="#0A0C0F"/>
<path d="M267.874 69.6061C268.384 69.7087 268.174 70.4306 268.024 70.7068C267.926 70.8883 267.76 71.0895 267.527 71.0382C267.191 70.9632 267.259 70.5016 267.322 70.261C267.389 69.9888 267.539 69.5351 267.874 69.6061Z" fill="#0A0C0F"/>
<path d="M255.6 50.0062V39.792C255.6 39.792 257.838 42.7746 258.099 44.6367C258.363 46.4989 257.53 49.087 255.6 50.0062Z" fill="#B6D2FF"/>
<path d="M255.592 50.0063C255.592 50.0063 253.124 46.7159 252.828 45.4456C252.52 44.1318 253.29 43.3428 254.32 43.8675C255.351 44.3922 256.733 45.9269 256.733 45.9269L255.592 50.0023V50.0063Z" fill="#B6D2FF"/>
<path d="M242.658 97.9646C242.658 97.9646 228.215 92.1533 226.999 91.6759C226.024 91.2932 226.494 89.4192 227.702 89.4192H239.124C239.124 89.4192 237.726 87.1192 237.746 86.196C237.77 85.2767 238.95 84.3654 240.443 85.2333C241.955 86.1092 247.328 89.4192 247.328 89.4192L242.654 97.9646H242.658Z" fill="#B6D2FF"/>
<path d="M247.222 41.6631H196.778C195.243 41.6631 194 43.2511 194 45.21V80.1162C194 82.0751 195.243 83.6631 196.778 83.6631H247.222C248.756 83.6631 250 82.0751 250 80.1162V45.21C250 43.2511 248.756 41.6631 247.222 41.6631Z" fill="#EDEEF3"/>
<path d="M206.378 77.0166H245.342C245.595 77.0166 245.595 76.6221 245.342 76.6221H206.378C206.125 76.6221 206.125 77.0166 206.378 77.0166Z" fill="#0A0C0F"/>
<path d="M198.561 77.0166H205.814C206.066 77.0166 206.066 76.6221 205.814 76.6221H198.561C198.308 76.6221 198.308 77.0166 198.561 77.0166Z" fill="#3448C5"/>
<path d="M208.072 76.8192C208.072 77.7542 207.314 78.5117 206.378 78.5117C205.442 78.5117 204.684 77.7542 204.684 76.8192C204.684 75.8842 205.442 75.1267 206.378 75.1267C207.314 75.1267 208.072 75.8842 208.072 76.8192Z" fill="#3448C5"/>
<path d="M226.757 62.1885C227.384 59.5335 225.739 56.8731 223.082 56.2465C220.425 55.6199 217.762 57.2642 217.135 59.9192C216.508 62.5743 218.154 65.2346 220.811 65.8612C223.468 66.4878 226.13 64.8435 226.757 62.1885Z" fill="#3448C5"/>
<path d="M220.793 59.4407V62.6836C220.793 62.9993 221.144 63.1847 221.409 63.0111L223.813 61.3896C224.046 61.2318 224.046 60.8925 223.813 60.7386L221.409 59.1171C221.148 58.9396 220.793 59.129 220.793 59.4446V59.4407Z" fill="white"/>
<path d="M281.985 118.421V122.958C281.985 123.21 282.38 123.21 282.38 122.958V118.421C282.38 118.168 281.985 118.168 281.985 118.421Z" fill="#0A0C0F"/>
<path d="M280.169 118.421V122.958C280.169 123.21 280.564 123.21 280.564 122.958V118.421C280.564 118.168 280.169 118.168 280.169 118.421Z" fill="#0A0C0F"/>
<path d="M269.339 118.421V122.958C269.339 123.21 269.734 123.21 269.734 122.958V118.421C269.734 118.168 269.339 118.168 269.339 118.421Z" fill="#0A0C0F"/>
<path d="M267.527 118.421V122.958C267.527 123.21 267.922 123.21 267.922 122.958V118.421C267.922 118.168 267.527 118.168 267.527 118.421Z" fill="#0A0C0F"/>
<path d="M262.466 123.234H286.995C287.248 123.234 287.248 122.839 286.995 122.839H262.466C262.213 122.839 262.213 123.234 262.466 123.234Z" fill="#0A0C0F"/>
<path d="M271.57 123.127C271.59 126.256 271.404 129.471 271.815 132.58C272.067 134.482 272.66 137.445 274.91 137.918C275.159 137.969 275.265 137.591 275.017 137.539C272.427 136.995 272.162 132.852 272.052 130.777C271.921 128.232 271.98 125.672 271.965 123.127C271.965 122.875 271.57 122.875 271.57 123.127Z" fill="#0A0C0F"/>
<path d="M260.085 149.923C260.535 145.063 260.989 140.198 261.439 135.338C261.463 135.085 261.068 135.085 261.044 135.338C260.594 140.198 260.14 145.063 259.69 149.923C259.666 150.176 260.061 150.176 260.085 149.923Z" fill="#0A0C0F"/>
<path d="M275.585 123.036C275.052 132.84 274.515 142.644 274.049 152.448C273.82 157.301 273.595 162.15 273.453 167.006C273.307 172.036 273.161 177.205 273.943 182.184C274.555 186.085 276.004 190.165 279.06 192.828C282.131 195.503 286.301 195.85 290.201 195.96C290.454 195.968 290.454 195.574 290.201 195.566C286.36 195.459 282.226 195.132 279.221 192.449C276.375 189.904 274.997 186.093 274.377 182.42C273.54 177.461 273.698 172.285 273.84 167.263C274.124 157.214 274.689 147.173 275.218 137.137C275.467 132.438 275.723 127.739 275.98 123.04C275.992 122.788 275.597 122.788 275.585 123.04V123.036Z" fill="#0A0C0F"/>
<path d="M290.201 195.956H330.366C330.618 195.956 330.618 195.562 330.366 195.562H290.201C289.949 195.562 289.949 195.956 290.201 195.956Z" fill="#0A0C0F"/>
<path d="M324.791 178.416C327.448 187.66 330.401 196.816 333.643 205.875C333.73 206.111 334.109 206.009 334.022 205.768C330.78 196.714 327.827 187.553 325.17 178.309C325.099 178.065 324.72 178.171 324.791 178.416Z" fill="#0A0C0F"/>
<path d="M190.356 190.216H219.561C219.814 190.216 219.814 189.822 219.561 189.822H190.356C190.104 189.822 190.104 190.216 190.356 190.216Z" fill="#0A0C0F"/>
<path d="M204.199 189.277C205.707 180.045 207.831 170.916 210.579 161.976C211.933 157.565 213.437 153.202 215.092 148.89C216.73 144.613 218.463 139.922 221.724 136.581C225.475 132.738 230.817 133.44 235.618 134.347C235.867 134.395 235.973 134.016 235.725 133.969C231.847 133.235 227.43 132.466 223.797 134.474C219.979 136.584 217.839 141.185 216.213 145.019C212.434 153.936 209.529 163.294 207.199 172.683C205.845 178.132 204.724 183.631 203.82 189.171C203.78 189.419 204.159 189.526 204.199 189.277Z" fill="#0A0C0F"/>
<path d="M235.618 134.348C243.996 136.206 252.334 138.23 260.657 140.313C260.902 140.376 261.009 139.993 260.764 139.934C252.441 137.851 244.103 135.823 235.725 133.969C235.476 133.914 235.373 134.292 235.618 134.348Z" fill="#0A0C0F"/>
<circle cx="156" cy="83.6631" r="16.5" stroke="#C2C9D6"/>
<path d="M156 77.6631V89.6631" stroke="#C2C9D6" stroke-linecap="round"/>
<path d="M162 83.6631L150 83.6631" stroke="#C2C9D6" stroke-linecap="round"/>
</g>
<defs>
<clipPath id="clip0_129_4487">
<rect width="350" height="209.674" fill="white" transform="translate(0 0.663086)"/>
</clipPath>
</defs>
</svg>
