<svg width="352" height="232" viewBox="0 0 352 232" fill="none" xmlns="http://www.w3.org/2000/svg">
<g clip-path="url(#clip0_9_2880)">
<path d="M242.893 4.01135H93.8396C88.8496 4.01135 84.8044 8.07455 84.8044 13.0868V172.959C84.8044 177.971 88.8496 182.035 93.8396 182.035H242.893C247.883 182.035 251.928 177.971 251.928 172.959V13.0868C251.928 8.07455 247.883 4.01135 242.893 4.01135Z" fill="#D1D6E0"/>
<path d="M251.933 12.4606H84.832C85.1528 7.73681 89.0605 4.01135 93.8446 4.01135H242.921C247.705 4.01135 251.613 7.73681 251.933 12.4606V12.4606Z" fill="#333B4C"/>
<path d="M97.0244 8.51724C97.0244 9.47469 96.2519 10.2552 95.2942 10.2552C94.3365 10.2552 93.564 9.47923 93.564 8.51724C93.564 7.55524 94.3365 6.7793 95.2942 6.7793C96.2519 6.7793 97.0244 7.55524 97.0244 8.51724V8.51724Z" fill="white"/>
<path d="M104.027 8.51724C104.027 9.47469 103.254 10.2552 102.297 10.2552C101.339 10.2552 100.566 9.47923 100.566 8.51724C100.566 7.55524 101.339 6.7793 102.297 6.7793C103.254 6.7793 104.027 7.55524 104.027 8.51724V8.51724Z" fill="white"/>
<path d="M17.9846 215.868L24.91 199.605L17.953 196.111L10.9958 212.319L17.9846 215.868Z" fill="#B6D2FF"/>
<path d="M57.4639 222.52L56.8721 215.033H64.6649L65.2929 222.52H57.4639Z" fill="#B6D2FF"/>
<path d="M67.4884 164.074C65.2477 145.42 63.0115 126.765 60.7752 108.111C59.6142 98.4682 57.5316 80.9391 56.2125 69.9215L25.5018 71.2647L25.4476 75.9975C20.7855 82.7995 18.477 91.0309 18.477 99.2714C18.477 111.196 26.4189 133.431 29.9065 143.718C22.1182 159.106 16.0104 171.503 8.51115 187.035C5.85932 192.526 0 204.991 0 204.991L25.3618 215.872C25.3618 215.872 38.8016 184.181 45.1534 169.216C46.2873 186.232 47.4257 203.248 48.5597 220.26C48.5597 220.278 48.5687 220.287 48.5732 220.301C48.5822 220.396 48.6365 220.483 48.7268 220.483H74.057C74.057 220.483 74.0886 220.473 74.1022 220.469C74.1022 220.469 74.1037 220.467 74.1067 220.464C74.1067 220.464 74.1338 220.455 74.1428 220.446C74.197 220.41 74.2377 220.351 74.2241 220.265C71.9789 201.533 69.7336 182.806 67.4884 164.074V164.074Z" fill="#C6D1DB"/>
<path d="M44.5525 100.243C47.3715 109.263 50.1859 118.289 52.7067 127.401C54.1253 132.519 55.7968 137.62 54.7261 142.974C53.8542 147.344 51.8891 151.441 50.2763 155.571C48.5009 160.099 46.7661 164.646 44.932 169.152C44.8235 169.424 45.2572 169.538 45.3657 169.275C47.0191 165.218 48.5867 161.125 50.1814 157.045C51.8213 152.848 53.8136 148.669 54.8978 144.281C55.4896 141.88 55.7245 139.448 55.4399 136.984C55.1598 134.57 54.4912 132.229 53.8587 129.892C52.5803 125.2 51.2476 120.526 49.8516 115.87C48.275 110.607 46.6261 105.366 44.9862 100.125C44.9003 99.8477 44.4621 99.9657 44.5525 100.247V100.243Z" fill="#0A0C0F"/>
<path d="M25.6463 76.0973H48.4602C48.7493 76.0973 48.7493 75.6436 48.4602 75.6436H25.6463C25.3572 75.6436 25.3572 76.0973 25.6463 76.0973Z" fill="#0A0C0F"/>
<path d="M53.9355 26.3278C47.2495 24.3313 40.1614 22.7612 33.2675 21.7629C27.3449 20.9053 21.7883 20.3608 17.3836 27.848C16.4078 29.5042 9.52754 44.5331 7.53527 50.3822C6.51882 53.3635 5.54301 56.3856 4.78406 59.4486C4.12449 62.0986 3.71339 64.921 4.46331 67.5983C5.06415 69.7401 6.35166 71.7911 8.41621 72.685C11.8496 74.1734 18.3775 74.8132 25.5831 68.6329C25.556 69.5086 25.5289 70.3799 25.5018 71.2602H49.7658C50.6648 56.5807 52.2459 41.9557 54.4912 27.4214C54.2969 27.063 54.1117 26.6954 53.94 26.3233L53.9355 26.3278Z" fill="#28BBFA"/>
<path d="M40.2698 55.4054V71.2602C40.2698 71.5506 40.7224 71.5506 40.7224 71.2602V55.4054C40.7224 55.115 40.2698 55.115 40.2698 55.4054Z" fill="#3448C5"/>
<path d="M91.2374 15.283H47.4257C45.6792 15.283 44.2634 16.7051 44.2634 18.4594V108.02C44.2634 109.774 45.6792 111.196 47.4257 111.196H91.2374C92.9839 111.196 94.3997 109.774 94.3997 108.02V18.4594C94.3997 16.7051 92.9839 15.283 91.2374 15.283Z" fill="white"/>
<rect x="51" y="22" width="36" height="25" rx="2" fill="#D1D6E0"/>
<path d="M56.2643 36.8869C57.2446 36.0338 57.6648 34.8903 57.1588 33.7196C56.8426 32.9845 56.0927 32.5806 55.3789 32.6804C55.6635 31.0333 54.0688 29.2182 52.0178 30.0894C50.5496 30.7156 49.8177 31.1467 48.6115 31.8092C47.3466 32.5035 46.2579 33.0843 44.9884 33.7786C45.0291 32.0452 45.0742 31.1376 45.0742 29.4496C45.0742 27.7616 42.8019 27.4666 42.2191 28.9958C41.6544 30.4797 40.7509 33.1251 40.0552 35.3441C38.3701 36.6464 35 39.251 35 39.251L42.4857 53.4359C42.4857 53.4359 50.6128 46.584 54.7058 43.0264C55.8758 42.01 57.2627 40.7076 57.2446 39.0151C57.2356 38.162 56.8787 37.3679 56.2598 36.8824L56.2643 36.8869Z" fill="#B6D2FF"/>
<path d="M18.0117 52.288C24.9598 47.1286 31.9078 41.9738 38.8604 36.8144C39.0908 36.642 38.8649 36.2472 38.6345 36.4242C31.6865 41.5835 24.7384 46.7384 17.7858 51.8977C17.5554 52.0702 17.7813 52.4649 18.0117 52.288Z" fill="#3448C5"/>
<path d="M25.913 68.6147C32.6849 62.6521 39.4161 56.6397 46.0976 50.5728C46.3145 50.3777 45.9937 50.0555 45.7769 50.2506C39.0953 56.313 32.3641 62.33 25.5922 68.2925C25.3754 68.4831 25.6916 68.8053 25.913 68.6147V68.6147Z" fill="#3448C5"/>
<path d="M34.6274 39.7412C36.8727 44.5603 39.3302 49.2795 41.7065 54.035C41.8375 54.2982 42.226 54.0668 42.095 53.8081C39.7187 49.0526 37.2657 44.3334 35.0159 39.5144C34.8939 39.2512 34.5054 39.4781 34.6274 39.7412Z" fill="#3448C5"/>
<path d="M28.9894 40.4083C28.5287 41.7378 28.1447 43.0855 27.8329 44.4604C27.7697 44.7463 28.2034 44.8643 28.2666 44.5829C28.5783 43.2126 28.9623 41.8603 29.4231 40.5308C29.518 40.254 29.0843 40.136 28.9894 40.4083Z" fill="#3448C5"/>
<path d="M44.2814 23.8048V19.5847L36.6331 14.566L34.6318 21.967C34.6318 21.967 39.4611 26.11 44.2859 23.8048H44.2814Z" fill="#B6D2FF"/>
<path d="M39.1856 0.308554C42.1492 -0.648901 46.0298 0.598967 47.4709 4.18829C48.9075 7.77762 49.689 13.4679 49.4767 16.3221C49.2599 19.2671 45.9937 20.6375 42.9895 19.6029C39.9853 18.5683 36.1905 15.2331 34.6003 11.2263C32.6171 6.21665 33.8368 2.03288 39.1856 0.304017V0.308554Z" fill="#B6D2FF"/>
<path d="M48.1349 6.14856C46.9603 6.3346 45.7632 6.03965 44.6112 5.59042C44.1504 6.4662 43.554 7.2966 42.7951 8.07708C40.8209 10.1191 38.2414 11.9523 35.3456 12.1247C35.2914 12.0249 35.0881 11.9024 34.826 11.7617C34.7447 11.5893 34.6725 11.4123 34.6002 11.2353C32.6169 6.2257 33.8412 2.0374 39.1855 0.313071C42.1536 -0.644385 46.0342 0.603484 47.4708 4.19281C47.7102 4.79179 47.9316 5.45429 48.1349 6.14856V6.14856Z" fill="#0A0C0F"/>
<path d="M37.5188 14.5389C37.3877 10.7817 36.823 8.6444 35.7117 5.05054C32.2467 5.36364 28.8901 6.48899 26.5952 9.31598C23.8756 12.6648 23.0986 16.9847 20.7404 20.5286C19.6336 22.1894 18.1925 23.3874 16.3719 24.1906C14.2893 25.1072 12.1073 25.688 10.3951 27.2717C7.09725 30.321 6.05369 35.3125 6.84879 39.6188C7.23278 41.7061 8.08661 43.6755 9.54579 45.1865C12.3738 38.3482 16.6339 29.1276 17.3838 27.8525C21.7885 20.3653 27.3451 20.9098 33.2677 21.7674C33.7917 21.8446 34.3203 21.9217 34.8488 22.0079C35.5355 21.4453 36.1319 20.7828 36.552 19.9614C37.4148 18.3006 37.582 16.3903 37.5188 14.5389V14.5389Z" fill="#0A0C0F"/>
<path d="M35.969 12.0749C39.5515 9.27057 42.6505 5.30915 44.7648 1.28421C44.9003 1.02556 44.5118 0.798674 44.3763 1.05732C42.2711 5.06412 39.2126 8.96654 35.6483 11.7572C35.4179 11.9342 35.7431 12.2564 35.969 12.0794V12.0749Z" fill="#333B4C"/>
<path d="M33.4258 5.5497C33.4484 8.51736 34.2525 11.3217 36.6966 13.1776C36.927 13.3546 37.1528 12.9598 36.9224 12.7873C34.6185 11.0358 33.9002 8.33585 33.8776 5.55424C33.8776 5.26382 33.4213 5.26382 33.4258 5.55424V5.5497Z" fill="#333B4C"/>
<path d="M11.3888 40.9301C9.73089 36.0475 12.2517 31.5688 16.6247 29.2773C16.8822 29.1411 16.6564 28.7509 16.3989 28.887C11.8542 31.2693 9.23847 35.9885 10.9552 41.0526C11.05 41.3294 11.4837 41.2114 11.3888 40.9301V40.9301Z" fill="#333B4C"/>
<path d="M32.0931 21.4543C33.4303 18.5139 34.5959 14.979 37.7356 13.5179C37.9976 13.3954 37.7717 13.0051 37.5097 13.1276C34.2887 14.6205 33.0779 18.2099 31.7046 21.2229C31.5826 21.4861 31.9757 21.7175 32.0931 21.4498V21.4543Z" fill="#333B4C"/>
<path d="M40.6585 12.8371C40.6585 14.1077 39.633 15.1423 38.3635 15.1423C37.0941 15.1423 36.0686 14.1122 36.0686 12.8371C36.0686 11.562 37.0941 10.532 38.3635 10.532C39.633 10.532 40.6585 11.562 40.6585 12.8371Z" fill="#B6D2FF"/>
<path d="M36.5744 14.5796C35.9465 15.1196 35.5806 15.9682 35.8245 16.794C36.0459 17.5564 36.7642 18.1463 37.5683 18.1372C39.3121 18.1145 40.2111 15.6097 38.7881 14.5569C38.5532 14.3845 38.3273 14.7747 38.5622 14.9472C39.7413 15.8229 38.648 18.0101 37.2385 17.6471C35.8923 17.2977 36.0278 15.6505 36.8952 14.9018C37.1166 14.7112 36.7958 14.3936 36.5744 14.5796V14.5796Z" fill="#F5B361"/>
<path d="M24.1872 21.781C26.2382 16.4674 28.2124 10.346 33.9136 7.97734C34.1801 7.86843 34.0627 7.42828 33.7916 7.54172C27.9142 9.98301 25.8723 16.1679 23.7535 21.6631C23.6496 21.9353 24.0833 22.0533 24.1872 21.7856V21.781Z" fill="#333B4C"/>
<path d="M39.8859 17.9558C40.9521 19.3352 42.4384 19.9932 44.1415 20.1883C44.4306 20.2201 44.4261 19.7663 44.1415 19.7346C42.5558 19.553 41.1915 18.9132 40.2067 17.6336C40.0305 17.4022 39.7098 17.7243 39.8859 17.9558Z" fill="#333B4C"/>
<path d="M34.3518 8.6852C37.1753 6.39366 39.6193 3.4623 41.4986 0.349437C41.6477 0.0998634 41.2592 -0.127022 41.1101 0.122552C39.2534 3.20365 36.8274 6.09871 34.0355 8.36302C33.8097 8.54453 34.1304 8.86671 34.3563 8.6852H34.3518Z" fill="#333B4C"/>
<path d="M28.664 21.1821C30.2633 17.6381 31.09 12.7374 34.9706 10.945C35.2326 10.8225 35.0067 10.4322 34.7447 10.5548C30.7692 12.388 29.9064 17.3341 28.2755 20.9506C28.1581 21.2138 28.5466 21.4453 28.664 21.1775V21.1821Z" fill="#333B4C"/>
<path d="M37.9208 11.7209C37.0986 12.1792 36.9359 13.1866 37.5006 13.9172C37.6768 14.1486 37.9976 13.8264 37.8214 13.595C37.4283 13.0868 37.609 12.4106 38.1512 12.1111C38.4041 11.9705 38.1783 11.5757 37.9253 11.7209H37.9208Z" fill="#333B4C"/>
<path d="M73.6232 15.283C73.6232 15.283 74.6035 11.0902 79.2702 11.0902C83.9368 11.0902 86.1866 13.7266 87.2392 15.8049C88.2647 17.8242 89.4122 20.8463 86.7242 20.6965C86.7242 20.6965 86.7784 21.8718 85.6987 22.0578C84.0046 22.3483 82.6674 20.5967 82.6674 20.5967C82.6674 20.5967 82.2066 21.5042 80.648 21.3273C79.4012 21.1866 77.2824 18.169 75.8278 15.283H73.6187H73.6232Z" fill="#B6D2FF"/>
<path d="M81.475 12.2292C83.7338 14.3937 85.6673 17.502 86.4488 20.5196C86.5211 20.8009 86.9593 20.6829 86.8825 20.3971C86.0784 17.2933 84.1132 14.1305 81.7912 11.907C81.5789 11.7074 81.2626 12.025 81.4705 12.2292H81.475Z" fill="#F3F4F7"/>
<path d="M77.5311 12.2292C79.8125 14.4118 81.7054 17.4702 82.4914 20.5196C82.5637 20.8009 83.0019 20.6829 82.9251 20.3971C82.1165 17.2615 80.1875 14.1441 77.8474 11.907C77.635 11.7074 77.3188 12.025 77.5266 12.2292H77.5311Z" fill="#F3F4F7"/>
<path d="M81.9898 231.065C81.9898 231.065 82.6674 227.707 79.5051 226.754C76.4377 225.828 72.6338 225.624 69.7923 225.243C67.8362 224.979 67.1721 224.866 65.2882 222.52H57.4592L57.9697 231.065H81.9898Z" fill="#0A0C0F"/>
<path d="M29.0435 231.064C29.0435 231.064 31.1533 228.374 28.7634 226.091C26.4414 223.872 23.139 221.971 20.7763 220.337C19.15 219.212 18.6079 218.813 17.9845 215.868L10.9957 212.319L7.61206 220.179L29.0435 231.069V231.064Z" fill="#0A0C0F"/>
<path d="M45.3161 9.27054C45.2438 10.0238 44.5616 9.6517 43.8433 10.0556C43.1838 10.4322 42.6959 10.4776 42.6055 10.0737C42.4971 9.58364 43.0482 8.84399 44.0557 8.59896C44.9953 8.36753 45.3703 8.72147 45.3206 9.27054H45.3161Z" fill="#0A0C0F"/>
<path d="M49.1922 9.94674C49.0838 9.95581 48.9663 9.92858 48.8398 9.86506C48.1034 9.50204 47.4394 9.92858 47.3129 9.1844C47.2225 8.63988 47.5704 8.25871 48.5281 8.42207C48.5688 8.4266 48.6049 8.43568 48.6456 8.44929C49.3593 8.58996 49.6078 9.84237 49.1922 9.94674Z" fill="#0A0C0F"/>
<path d="M44.4712 10.405C43.8839 10.5049 44.0962 11.3398 44.2544 11.6665C44.3583 11.8798 44.5435 12.1158 44.81 12.0658C45.1985 11.9932 45.1353 11.4623 45.0766 11.181C45.0088 10.8679 44.8552 10.3415 44.4712 10.405Z" fill="#0A0C0F"/>
<path d="M48.2705 10.1055C47.6832 10.2053 47.8956 11.0403 48.0537 11.367C48.1576 11.5802 48.3428 11.8162 48.6093 11.7663C48.9979 11.6937 48.9346 11.1628 48.8759 10.8814C48.8081 10.5683 48.6545 10.042 48.2705 10.1055Z" fill="#0A0C0F"/>
<path d="M46.1924 9.70622C46.5312 11.0766 47.1592 12.3109 47.9904 13.4453C48.1621 13.6767 48.5551 13.4498 48.3789 13.2184C47.5658 12.1112 46.9604 10.9269 46.6261 9.58824C46.5538 9.3069 46.1201 9.42488 46.1924 9.71075V9.70622Z" fill="#333B4C"/>
<path d="M46.3506 13.5859C46.9695 13.6721 47.5839 13.6812 48.2028 13.6086C48.4874 13.5768 48.4919 13.1185 48.2028 13.1548C47.6246 13.2229 47.0463 13.2274 46.468 13.1503C46.1834 13.1094 46.0615 13.5496 46.3461 13.5859H46.3506Z" fill="#333B4C"/>
<path d="M44.6701 14.2621L47.3761 15.2468C47.3761 15.2468 46.9198 16.4719 45.5013 16.0046C44.3448 15.6234 44.6701 14.2621 44.6701 14.2621V14.2621Z" fill="white"/>
<path d="M3.12169 199.35C10.9326 203.357 18.8384 207.178 26.83 210.813C27.0921 210.931 27.3225 210.54 27.0559 210.422C19.0643 206.788 11.1585 202.967 3.34757 198.96C3.09006 198.829 2.85966 199.219 3.12169 199.35V199.35Z" fill="#0A0C0F"/>
<path d="M48.3338 215.26C56.6913 215.405 65.0444 215.555 73.4019 215.7C73.6911 215.704 73.6911 215.251 73.4019 215.246C65.0444 215.101 56.6913 214.951 48.3338 214.806C48.0447 214.801 48.0447 215.255 48.3338 215.26V215.26Z" fill="#0A0C0F"/>
<path d="M189.826 30H124.174C122.421 30 121 31.6701 121 33.7302V84.2698C121 86.3299 122.421 88 124.174 88H189.826C191.579 88 193 86.3299 193 84.2698V33.7302C193 31.6701 191.579 30 189.826 30Z" fill="white"/>
<path d="M149 50H163V64H149V50Z" fill="#EDEEF3"/>
<path d="M234.039 98.6769H104.682C102.935 98.6769 101.52 100.099 101.52 101.853V186.255C101.52 188.009 102.935 189.431 104.682 189.431H234.039C235.785 189.431 237.201 188.009 237.201 186.255V101.853C237.201 100.099 235.785 98.6769 234.039 98.6769Z" fill="white"/>
<path d="M225.256 113.447H113.468C111.722 113.447 110.306 114.869 110.306 116.624V170.168C110.306 171.923 111.722 173.345 113.468 173.345H225.256C227.003 173.345 228.419 171.923 228.419 170.168V116.624C228.419 114.869 227.003 113.447 225.256 113.447Z" fill="#EDEEF3"/>
<path d="M176.326 146.298C177.92 142.434 176.093 138.004 172.245 136.403C168.398 134.802 163.988 136.637 162.394 140.502C160.801 144.366 162.628 148.796 166.475 150.397C170.322 151.998 174.732 150.162 176.326 146.298Z" fill="#3448C5"/>
<path d="M167.59 140.909V145.887C167.59 146.373 168.127 146.659 168.529 146.386L172.198 143.9C172.55 143.659 172.55 143.137 172.198 142.897L168.529 140.41C168.132 140.138 167.59 140.428 167.59 140.909V140.909Z" fill="white"/>
<path d="M185.28 165.191H219.998C220.287 165.191 220.287 164.737 219.998 164.737H185.28C184.991 164.737 184.991 165.191 185.28 165.191Z" fill="#0A0C0F"/>
<path d="M119.003 165.191H184.494C184.783 165.191 184.783 164.737 184.494 164.737H119.003C118.714 164.737 118.714 165.191 119.003 165.191V165.191Z" fill="#3448C5"/>
<path d="M186.437 164.964C186.437 166.039 185.57 166.91 184.499 166.91C183.428 166.91 182.561 166.039 182.561 164.964C182.561 163.888 183.428 163.017 184.499 163.017C185.57 163.017 186.437 163.888 186.437 164.964Z" fill="#3448C5"/>
<path d="M344.281 205.862L338.436 201.184L334.076 207.673L339.904 212.383L344.281 205.862Z" fill="#B6D2FF"/>
<path d="M337.613 231.064C337.613 231.064 334.465 229.748 335.445 226.586C336.398 223.514 338.359 220.233 339.633 217.651C340.509 215.872 340.785 215.26 339.904 212.378L344.286 205.857L351.053 211.062L337.618 231.06L337.613 231.064Z" fill="#0A0C0F"/>
<path d="M248.142 231.064C248.142 231.064 247.993 227.706 251.305 226.753C254.517 225.828 258.352 225.624 261.257 225.242C263.258 224.979 263.936 224.866 266.186 222.52H274.015L272.162 231.064H248.142Z" fill="#0A0C0F"/>
<path d="M266.181 222.52L268.097 215.033H275.889L274.015 222.52H266.181Z" fill="#B6D2FF"/>
<path d="M325.529 59.6572C325.529 59.6572 330.607 66.9539 334.596 74.5908C338.585 82.2278 341.164 87.4688 337.925 98.677C334.686 109.885 310.878 162.826 310.878 162.826L347.774 190.761L331.659 215.568C331.659 215.568 265.852 163.988 259.378 158.243C252.904 152.494 249.507 141.218 257.422 131.775C265.526 122.101 297.326 88.3627 297.326 88.3627L293.409 80.1949L325.524 59.6618L325.529 59.6572Z" fill="#28BBFA"/>
<path d="M332.64 31.5188C324.192 28.2971 313.616 23.8184 306.623 23.8184C297.583 23.8184 290.73 30.339 284.026 35.5937C280.62 38.2664 277.209 40.9346 273.798 43.6073C273.753 43.5982 273.699 43.6028 273.644 43.6345C264.835 49.0389 264.781 60.4694 265.12 69.6083C265.12 69.6401 265.192 71.673 265.192 71.673C265.192 71.673 282.318 79.614 282.964 79.9089C283.326 77.2181 283.687 74.5272 284.048 71.8363C287.288 76.0609 294.087 84.256 294.087 84.256C294.087 84.256 325.375 59.9839 325.529 59.6617C323.356 56.1858 321.183 52.7099 319.006 49.234C320.465 49.8376 321.928 50.4456 323.388 51.0491C323.848 50.1507 332.635 31.5234 332.635 31.5234L332.64 31.5188Z" fill="#485266"/>
<path d="M284.803 43.2534L279.933 42.3776C279.648 42.3277 279.526 42.7633 279.811 42.8133C281.433 43.1037 283.055 43.3986 284.681 43.689C284.965 43.7389 285.087 43.3033 284.803 43.2534Z" fill="#C2C9D6"/>
<path d="M280.354 47.3646C280.331 45.7083 280.309 44.0521 280.286 42.3958C280.286 42.1054 279.829 42.1054 279.834 42.3958C279.856 44.0521 279.879 45.7083 279.901 47.3646C279.901 47.655 280.359 47.655 280.354 47.3646Z" fill="#C2C9D6"/>
<path d="M279.964 42.7543C283.059 46.4752 286.154 50.2006 289.244 53.9216C289.429 54.1439 289.749 53.8217 289.564 53.5994C286.47 49.8785 283.375 46.153 280.285 42.4321C280.1 42.2097 279.779 42.5319 279.964 42.7543Z" fill="#C2C9D6"/>
<path d="M271.164 41.9556L273.229 43.8932C273.229 43.8932 276.233 45.2863 279.888 42.904C283.538 40.5217 282.923 36.4559 282.923 36.4559L277.828 33.8694L271.164 41.9601V41.9556Z" fill="#B6D2FF"/>
<path d="M272.402 23.4327C269.344 22.8338 265.639 24.5354 264.636 28.2745C263.633 32.0135 263.529 37.7492 264.076 40.5626C264.641 43.4622 268.042 44.4332 270.907 43.0492C273.771 41.6698 277.145 37.8989 278.248 33.7333C279.63 28.524 277.918 24.5127 272.406 23.4327H272.402Z" fill="#B6D2FF"/>
<path d="M261.632 36.2019C261.469 36.4605 261.609 36.8371 261.853 37.0141C262.097 37.1865 262.405 37.2092 262.698 37.2047C263.313 37.1956 264.252 37.0323 264.785 36.7055L264.925 29.3862C264.799 30.6749 264.356 31.9273 263.706 33.0255C263.055 34.1281 262.332 35.081 261.632 36.2064V36.2019Z" fill="#B6D2FF"/>
<path d="M260.954 26.9948C260.954 28.3924 261.831 30.8519 264.636 30.8836C267.437 30.9154 268.038 30.1213 269.845 29.3816C271.652 28.642 272.632 29.2319 272.958 31.6686C273.283 34.1054 274.376 35.9159 276.536 36.4468C278.695 36.9778 280.127 35.0311 280.127 35.0311L278.162 34.0328C278.162 34.0328 279.219 31.9727 279.409 27.8524C279.598 23.7322 278.017 21.8763 275.081 23.0515C275.081 23.0515 273.012 20.0249 269.547 20.102C266.082 20.1792 265.933 22.7884 265.933 22.7884C265.933 22.7884 260.954 22.9653 260.959 26.9993L260.954 26.9948Z" fill="#0A0C0F"/>
<path d="M265.648 22.9563C265.4 23.7595 265.251 24.8122 265.946 25.443C266.633 26.0601 267.771 25.9512 268.467 25.4339C268.363 25.3295 268.259 25.2251 268.16 25.1253C267.658 25.7878 268.295 26.6046 268.914 26.8587C269.958 27.2853 271.155 26.9631 271.86 26.1009C272.045 25.8786 271.724 25.5519 271.539 25.7787C271.151 26.2552 270.699 26.5093 270.084 26.5592C269.723 26.591 267.78 26.3641 268.548 25.3522C268.684 25.1752 268.417 24.912 268.241 25.0436C267.74 25.4157 266.945 25.6018 266.38 25.2115C265.653 24.7124 265.883 23.7322 266.086 23.0833C266.172 22.802 265.738 22.684 265.653 22.9608L265.648 22.9563Z" fill="#333B4C"/>
<path d="M272.19 29.486C273.825 30.0487 275.347 28.3788 276.228 27.2126C276.405 26.9812 276.012 26.7543 275.84 26.9857C275.085 27.984 273.712 29.5359 272.312 29.0504C272.036 28.9551 271.919 29.3952 272.19 29.486V29.486Z" fill="#333B4C"/>
<path d="M272.041 33.6153C272.33 34.8541 273.563 35.6255 274.796 35.3351C276.03 35.0447 276.798 33.8059 276.509 32.5671C276.219 31.3283 274.986 30.5569 273.753 30.8473C272.52 31.1377 271.752 32.3765 272.041 33.6153Z" fill="#B6D2FF"/>
<path d="M263.8 36.9006C264.704 36.2517 265.797 36.9323 266.434 37.5358C267.076 38.1394 268.562 37.9942 269.335 36.8098C270.107 35.6255 270.012 33.5744 271.855 33.098C273.699 32.6215 273.956 35.4303 273.73 36.8098C273.504 38.1893 272.37 43.5665 268.661 44.8007C265.35 45.9034 263.042 43.9068 262.933 41.6198C262.825 39.3419 263.145 37.3725 263.8 36.9006Z" fill="#0A0C0F"/>
<path d="M264.379 39.2013C265.025 39.2194 265.617 38.9925 266.1 38.5614C266.317 38.3663 265.996 38.0487 265.779 38.2393C265.386 38.5887 264.903 38.7566 264.379 38.7429C264.09 38.7339 264.09 39.1876 264.379 39.1967V39.2013Z" fill="#B6D2FF"/>
<path d="M274.327 32.3403C274.927 32.5082 275.239 33.1344 274.973 33.7152C274.851 33.9784 275.239 34.2098 275.361 33.9421C275.745 33.0981 275.348 32.1542 274.444 31.9001C274.164 31.823 274.042 32.2586 274.322 32.3357L274.327 32.3403Z" fill="#3448C5"/>
<path d="M264.248 32.1134C264.374 32.8621 265.029 32.4355 265.775 32.7895C266.461 33.1162 266.949 33.1253 267.012 32.7169C267.085 32.2223 266.484 31.5235 265.463 31.351C264.505 31.1877 264.162 31.5688 264.252 32.1134H264.248Z" fill="#0A0C0F"/>
<path d="M265.225 33.1389C265.822 33.1389 265.759 33.9965 265.655 34.3459C265.587 34.5728 265.446 34.8406 265.175 34.836C264.781 34.836 264.749 34.296 264.758 34.0102C264.772 33.688 264.831 33.1435 265.225 33.1389V33.1389Z" fill="#0A0C0F"/>
<path d="M309.686 93.5993L215.065 72.3401C213.362 71.959 212.286 70.2573 212.67 68.5466L219.252 38.9925C219.632 37.2818 221.326 36.2018 223.029 36.5875L317.65 57.8467C319.353 58.2279 320.429 59.9295 320.045 61.6402L313.462 91.1943C313.083 92.905 311.389 93.985 309.686 93.5993V93.5993Z" fill="white"/>
<path d="M217.462 63.5271L222.05 43.9222C222.3 42.8566 223.359 42.1893 224.428 42.4248L250.021 48.064C251.11 48.3039 251.792 49.3875 251.538 50.4729L246.95 70.0778C246.7 71.1434 245.641 71.8107 244.572 71.5752L218.979 65.936C217.89 65.6961 217.208 64.6125 217.462 63.5271Z" fill="#D1D6E0"/>
<path d="M249.462 70.5271L254.05 50.9222C254.3 49.8566 255.359 49.1893 256.428 49.4248L282.021 55.064C283.11 55.3039 283.792 56.3875 283.538 57.4729L278.95 77.0778C278.7 78.1434 277.641 78.8107 276.572 78.5752L250.979 72.936C249.89 72.6961 249.208 71.6125 249.462 70.5271Z" fill="#D1D6E0"/>
<mask id="mask0_9_2880" style="mask-type:alpha" maskUnits="userSpaceOnUse" x="249" y="49" width="35" height="30">
<path d="M249.462 70.5271L254.05 50.9222C254.3 49.8566 255.359 49.1893 256.428 49.4248L282.021 55.064C283.11 55.3039 283.792 56.3875 283.538 57.4729L278.95 77.0778C278.7 78.1434 277.641 78.8107 276.572 78.5752L250.979 72.936C249.89 72.6961 249.208 71.6125 249.462 70.5271Z" fill="#D9D9D9"/>
</mask>
<g mask="url(#mask0_9_2880)">
<path d="M261 57.5C257.8 57.9 251.667 63 249 65.5L247 75L277.5 83.5C280.5 77.3333 285.7 64.9 282.5 64.5C278.5 64 273.5 74 269 72C264.5 70 265 57 261 57.5Z" fill="#C2C9D6"/>
</g>
<path d="M281.462 77.5271L286.05 57.9222C286.3 56.8566 287.359 56.1893 288.428 56.4248L314.021 62.064C315.11 62.3039 315.792 63.3875 315.538 64.4729L310.95 84.0778C310.7 85.1434 309.641 85.8107 308.572 85.5752L282.979 79.936C281.89 79.6961 281.208 78.6125 281.462 77.5271Z" fill="#D1D6E0"/>
<path d="M347.082 57.3793C344.67 65.0934 338.589 82.9855 333.317 88.8119C328.045 94.6338 322.927 97.8102 320.067 98.1142C317.203 98.4137 315.699 97.1296 315.699 97.1296C315.699 97.1296 312.762 97.8102 311.484 96.222C311.484 96.222 308.218 97.7104 306.514 98.391C305.231 98.9038 303.876 98.9809 303.312 98.1868C302.747 97.3927 302.9 96.3536 304.161 95.3508C305.331 94.4206 314.041 87.6004 314.041 87.6004C314.041 87.6004 310.689 88.0542 309.261 88.2538C308.258 88.3945 307.129 87.7138 307.057 86.6747C306.998 85.8443 307.192 84.7643 309.975 83.8931C312.762 83.0264 317.808 81.2476 317.808 81.2476C317.808 81.2476 325.366 61.3588 326.369 58.786C327.336 56.2902 327.797 52.9641 323.388 51.0446C324.924 47.8365 329.934 37.2545 331.808 33.2841C335.63 35.1899 341.539 38.7293 343.482 40.7849C346.224 43.689 349.49 49.6652 347.082 57.3793V57.3793Z" fill="#B6D2FF"/>
<path d="M223.689 74.2868C223.689 74.2868 222.749 74.3821 222.623 75.3577C222.519 76.179 222.835 76.6328 223.54 77.1229C224.244 77.6129 254.81 97.479 260.331 100.605C265.851 103.732 273.125 103.632 276.567 97.6832C280.01 91.7343 282.056 87.3917 282.056 87.3917L239.049 77.6175C239.049 77.6175 235.85 70.9243 235.435 70.0939C235.019 69.2635 234.242 68.9187 233.551 69.1501C232.475 69.5086 232.534 71.0015 232.837 73.0435C232.837 73.0435 230.691 69.1864 230.203 68.5057C229.715 67.8251 228.852 67.7389 228.342 67.9748C227.773 68.238 227.402 68.9958 227.759 70.1302C228.116 71.2647 229.697 75.6299 229.697 75.6299L223.693 74.2868H223.689Z" fill="#B6D2FF"/>
<path d="M310.878 162.822L289.528 218.776H253.695L284.83 153.243L310.878 162.822Z" fill="#28BBFA"/>
<path d="M257.395 211.806H292.022C292.311 211.806 292.311 211.353 292.022 211.353H257.395C257.105 211.353 257.105 211.806 257.395 211.806Z" fill="#4053C8"/>
<path d="M326.401 211.103L342.163 186.749C342.321 186.504 341.932 186.277 341.774 186.522C336.52 194.64 331.266 202.758 326.012 210.876C325.854 211.121 326.243 211.348 326.401 211.103Z" fill="#4053C8"/>
<path d="M276.224 171.276C279.833 163.72 283.447 156.17 287.057 148.614C291.719 138.863 296.381 129.111 301.039 119.36C302.724 115.834 304.409 112.313 306.094 108.787C306.221 108.524 305.832 108.292 305.706 108.56C302.096 116.115 298.482 123.666 294.872 131.221C290.21 140.973 285.548 150.724 280.89 160.476C279.205 164.002 277.52 167.523 275.835 171.049C275.709 171.312 276.097 171.543 276.224 171.276Z" fill="#4053C8"/>
<path d="M300.885 190.792C304.378 181.73 307.87 172.673 311.366 163.611C311.47 163.339 311.036 163.221 310.933 163.489C307.44 172.551 303.948 181.608 300.452 190.67C300.348 190.942 300.782 191.06 300.885 190.792Z" fill="#4053C8"/>
<path d="M316.159 97.4291C317.759 96.8891 319.249 96.0678 320.474 94.8925C320.686 94.6928 320.365 94.3707 320.153 94.5703C318.983 95.6911 317.564 96.4762 316.037 96.9889C315.762 97.0797 315.879 97.5198 316.159 97.4245V97.4291Z" fill="#0A0C0F"/>
<path d="M311.773 96.3082C313.593 95.8726 315.188 94.4024 316.702 93.3632C316.941 93.1999 316.715 92.8051 316.476 92.973C315.003 93.9849 313.422 95.4506 311.655 95.8726C311.371 95.9407 311.493 96.3763 311.777 96.3082H311.773Z" fill="#0A0C0F"/>
<path d="M320.442 49.588C323.415 43.208 326.383 36.828 329.355 30.448C329.477 30.1848 329.089 29.9534 328.967 30.2211C325.994 36.6011 323.026 42.9811 320.054 49.3611C319.932 49.6243 320.32 49.8557 320.442 49.588Z" fill="#C2C9D6"/>
<path d="M312.333 46.6385L318.933 49.4428C319.2 49.5562 319.43 49.166 319.159 49.0525L312.559 46.2482C312.292 46.1348 312.062 46.525 312.333 46.6385V46.6385Z" fill="#C2C9D6"/>
<path d="M284.983 43.4122C284.586 40.9891 284.184 38.5614 283.786 36.1383C283.741 35.8524 283.303 35.9749 283.353 36.2608C283.75 38.684 284.152 41.1116 284.55 43.5348C284.595 43.8206 285.033 43.6981 284.983 43.4122Z" fill="#C2C9D6"/>
<path d="M280.118 47.242C277.57 46.3254 275.022 45.4088 272.474 44.4922C272.199 44.3923 272.081 44.8325 272.352 44.9278L279.996 47.6776C280.272 47.7775 280.389 47.3373 280.118 47.242Z" fill="#C2C9D6"/>
<path d="M279 59C279 60.6569 277.657 62 276 62C274.343 62 273 60.6569 273 59C273 57.3431 274.343 56 276 56C277.657 56 279 57.3431 279 59Z" fill="#C2C9D6"/>
<rect x="51" y="51" width="36" height="25" rx="2" fill="#D1D6E0"/>
<mask id="mask1_9_2880" style="mask-type:alpha" maskUnits="userSpaceOnUse" x="51" y="51" width="36" height="25">
<rect x="51" y="51" width="36" height="25" rx="2" fill="#D9D9D9"/>
</mask>
<g mask="url(#mask1_9_2880)">
<path d="M58.577 58.5617C54.4536 60.3004 47.8706 67.7602 45.0944 71.2728L45.335 81.1699L88.3862 76.3256C90.4876 69.1792 93.5986 55.1305 89.2316 56.1072C83.7728 57.3281 80.1859 68.9742 73.6068 68.9785C67.0278 68.9827 63.7311 56.3884 58.577 58.5617Z" fill="#F5B361"/>
</g>
<rect x="51" y="80" width="36" height="25" rx="2" fill="#D1D6E0"/>
<path d="M55.5 32.5C54.1667 33.5 51.1 35.7 49.5 36.5" stroke="#F9FAFB" stroke-width="0.5" stroke-linecap="round"/>
<path d="M57 37C55.6667 38 52.6 40.2 51 41" stroke="#F9FAFB" stroke-width="0.5" stroke-linecap="round"/>
<circle cx="77" cy="56" r="3" fill="#FFA359"/>
<path d="M152.273 46L149 50H163.727L167 46H152.273Z" fill="#F3F4F7"/>
<path d="M163 50L167 46V60L163 64V50Z" fill="#D1D6E0"/>
<ellipse cx="158.5" cy="75.5" rx="11.5" ry="1.5" fill="#D1D6E0"/>
</g>
<defs>
<clipPath id="clip0_9_2880">
<rect width="351.049" height="231.064" fill="white"/>
</clipPath>
</defs>
</svg>
